<svg xmlns="http://www.w3.org/2000/svg" width="512" height="512" style="overflow: visible;" viewBox="0 0 512 512" data-svgdocument="" id="_fuyjpkTZdg01JoXmZd7Tc" class="fl-svgdocument" x="0" y="0" overflow="hidden" data-bbox="24.999280712572613 151.93301723052025 469.87665002701635 208.1339655389595"><defs id="_tWshgPn9TvJdNBoabsr7q" transform="matrix(0.8804929256439209, 0, 0, 0.8804929256439209, 24.99928092956543, 21.413223266601562)" data-uid="o_f1j7g2edl_4"></defs><path id="_7MvMgRWMfzrsDGih34xor" d="M859.879 829.376c-2.57 2.693-5.148 5.377-7.711 8.078-48.885 51.41-97.713 102.88-146.736 154.156-4.877 5.099-5.236 8.605 0.405 13.107 5.458 4.361 10.846 8.975 15.437 14.203 5.855 6.664 10.186 6.657 17.125 0.657 39.475-34.124 78.587-68.745 119.417-101.189 47.801-37.989 97.236-73.916 145.953-110.748 2.735-2.066 5.374-4.258 9.174-7.279-3.59-2.998-6.241-5.553-9.216-7.638-91.614-64.135-177.98-134.851-261.906-208.637-12.909-11.347-10.468-11.778-23.431 0.286-19.348 18.015-19.233 17.843-0.917 37.038 46.342 48.568 92.534 97.266 138.773 145.934 1.226 1.291 2.204 2.826 3.972 5.133-2.788 0.47-4.533 1.001-6.283 1.024-74.206 0.936-148.153-1.264-221.282-15.807-153.015-30.423-285.344-98.909-391.93-213.953-86.244-93.088-141.645-202.721-170.732-325.934-15.796-66.908-21.891-134.82-21.047-203.458 0.176-14.15 0.008-14.161-14.135-14.223-7.951-0.038-15.918 0.244-23.858-0.103-8.265-0.359-10.835 3.158-10.908 11.351-0.493 58.96 2.91 117.573 13.241 175.716 19.508 109.801 58.712 211.814 121.384 304.272 101.028 149.054 238.961 247.913 411.029 299.578 68.84 20.673 139.323 32.173 211.173 34.651 30.19 1.043 60.419 1.043 90.629 1.505 3.773 0.057 7.547 0.008 11.316 0.008 0.355 0.76 0.71 1.52 1.062 2.272z" fill="rgba(255,101,26,1)" transform="matrix(0.06097797676920891, -0.11964012682437897, 0.11964012682437897, 0.06097797676920891, 310.59716796875, 297.6251525878906)" data-uid="o_f1j7g2edl_5"></path><path text="X" text-anchor="end" font-size="100" letter-spacing="0" side="left" offset="1" dx="0" dy="0" space="preserve" href="" font-family="Montserrat" font-scale="contain" transform="matrix(0.7718715071678162, 0, 0, 0.7718715071678162, 388.55078125, 283.4627380371094)" x="0" y="0" fill="#050512" font-weight="700" data-fl-textpath="" id="_0mVXTkBpQNTpfrB0MC3Dp" data-uid="o_f1j7g2edl_6" d="M-0.30000000000001137 0L-19.000000000000007 0L-35.900000000000006-24.3L-52.50000000000001 0L-71.10000000000001 0L-45.2-35.6L-69.80000000000001-70L-51.400000000000006-70L-35.300000000000004-47.3L-19.500000000000007-70L-2-70L-26.400000000000006-36.2L-0.30000000000001137 0Z"></path><path text="Boilerplate" text-anchor="end" font-size="100" letter-spacing="0" side="left" offset="1" dx="0" dy="0" space="preserve" href="" font-family="Montserrat" font-scale="contain" transform="matrix(0.7718715071678162, 0, 0, 0.7718715071678162, 461.4154968261719, 212.67930603027344)" x="0" y="0" fill="#0202b0" font-weight="700" data-fl-textpath="" id="_k9PuFdTnD4UnJoYOtZN1a" data-uid="o_f1j7g2edl_7" d="M-514-36.4Q-508.00000000000006-34.5 -504.6-30.05Q-501.20000000000005-25.6 -501.20000000000005-19.1L-501.20000000000005-19.1Q-501.20000000000005-9.9 -508.35-4.95Q-515.5 0 -529.2 0L-529.2 0L-565.4000000000001 0L-565.4000000000001-70L-531.2-70Q-518.4000000000001-70 -511.55000000000007-65.1Q-504.70000000000005-60.2 -504.70000000000005-51.8L-504.70000000000005-51.8Q-504.70000000000005-46.7 -507.15000000000003-42.7Q-509.6-38.7 -514-36.4L-514-36.4ZM-533.2-57.8L-549.3000000000001-57.8L-549.3000000000001-41.3L-533.2-41.3Q-527.2-41.3 -524.1-43.4Q-521-45.5 -521-49.6L-521-49.6Q-521-53.7 -524.1-55.75Q-527.2-57.8 -533.2-57.8L-533.2-57.8ZM-530.4000000000001-12.2Q-524-12.2 -520.75-14.3Q-517.5-16.4 -517.5-20.8L-517.5-20.8Q-517.5-29.5 -530.4000000000001-29.5L-530.4000000000001-29.5L-549.3000000000001-29.5L-549.3000000000001-12.2L-530.4000000000001-12.2ZM-464.40000000000003 0.8Q-472.90000000000003 0.8 -479.65000000000003-2.75Q-486.40000000000003-6.3 -490.20000000000005-12.6Q-494.00000000000006-18.9 -494.00000000000006-26.9L-494.00000000000006-26.9Q-494.00000000000006-34.9 -490.20000000000005-41.2Q-486.40000000000003-47.5 -479.65000000000003-51.05Q-472.90000000000003-54.6 -464.40000000000003-54.6L-464.40000000000003-54.6Q-455.90000000000003-54.6 -449.20000000000005-51.05Q-442.50000000000006-47.5 -438.70000000000005-41.2Q-434.90000000000003-34.9 -434.90000000000003-26.9L-434.90000000000003-26.9Q-434.90000000000003-18.9 -438.70000000000005-12.6Q-442.50000000000006-6.3 -449.20000000000005-2.75Q-455.90000000000003 0.8 -464.40000000000003 0.8L-464.40000000000003 0.8ZM-464.40000000000003-12Q-458.40000000000003-12 -454.55000000000007-16.05Q-450.70000000000005-20.1 -450.70000000000005-26.9L-450.70000000000005-26.9Q-450.70000000000005-33.7 -454.55000000000007-37.75Q-458.40000000000003-41.8 -464.40000000000003-41.8L-464.40000000000003-41.8Q-470.40000000000003-41.8 -474.30000000000007-37.75Q-478.20000000000005-33.7 -478.20000000000005-26.9L-478.20000000000005-26.9Q-478.20000000000005-20.1 -474.30000000000007-16.05Q-470.40000000000003-12 -464.40000000000003-12L-464.40000000000003-12ZM-424.50000000000006 0L-424.50000000000006-53.8L-408.90000000000003-53.8L-408.90000000000003 0L-424.50000000000006 0ZM-416.70000000000005-61.3Q-421.00000000000006-61.3 -423.70000000000005-63.8Q-426.40000000000003-66.3 -426.40000000000003-70L-426.40000000000003-70Q-426.40000000000003-73.7 -423.70000000000005-76.2Q-421.00000000000006-78.7 -416.70000000000005-78.7L-416.70000000000005-78.7Q-412.40000000000003-78.7 -409.70000000000005-76.3Q-407.00000000000006-73.9 -407.00000000000006-70.3L-407.00000000000006-70.3Q-407.00000000000006-66.4 -409.70000000000005-63.85Q-412.40000000000003-61.3 -416.70000000000005-61.3L-416.70000000000005-61.3ZM-394.40000000000003 0L-394.40000000000003-74.2L-378.8-74.2L-378.8 0L-394.40000000000003 0ZM-311.6-26.7Q-311.6-26.4 -311.9-22.5L-311.9-22.5L-352.6-22.5Q-351.5-17.5 -347.4-14.6Q-343.3-11.7 -337.2-11.7L-337.2-11.7Q-333-11.7 -329.75-12.95Q-326.5-14.2 -323.7-16.9L-323.7-16.9L-315.4-7.9Q-323 0.8 -337.6 0.8L-337.6 0.8Q-346.7 0.8 -353.7-2.75Q-360.7-6.3 -364.5-12.6Q-368.3-18.9 -368.3-26.9L-368.3-26.9Q-368.3-34.8 -364.55-41.15Q-360.8-47.5 -354.25-51.05Q-347.7-54.6 -339.6-54.6L-339.6-54.6Q-331.7-54.6 -325.3-51.2Q-318.9-47.8 -315.25-41.45Q-311.6-35.1 -311.6-26.7L-311.6-26.7ZM-339.5-42.8Q-344.8-42.8 -348.4-39.8Q-352-36.8 -352.8-31.6L-352.8-31.6L-326.3-31.6Q-327.1-36.7 -330.7-39.75Q-334.3-42.8 -339.5-42.8L-339.5-42.8ZM-286.29999999999995-46.7Q-283.5-50.6 -278.75-52.6Q-274-54.6 -267.79999999999995-54.6L-267.79999999999995-54.6L-267.79999999999995-40.2Q-270.4-40.4 -271.29999999999995-40.4L-271.29999999999995-40.4Q-278-40.4 -281.79999999999995-36.65Q-285.59999999999997-32.9 -285.59999999999997-25.4L-285.59999999999997-25.4L-285.59999999999997 0L-301.2 0L-301.2-53.8L-286.29999999999995-53.8L-286.29999999999995-46.7ZM-226.7-54.6Q-219.2-54.6 -213.04999999999998-51.15Q-206.89999999999998-47.7 -203.39999999999998-41.45Q-199.89999999999998-35.2 -199.89999999999998-26.9L-199.89999999999998-26.9Q-199.89999999999998-18.6 -203.39999999999998-12.35Q-206.89999999999998-6.1 -213.04999999999998-2.65Q-219.2 0.8 -226.7 0.8L-226.7 0.8Q-237 0.8 -242.89999999999998-5.7L-242.89999999999998-5.7L-242.89999999999998 19.4L-258.5 19.4L-258.5-53.8L-243.6-53.8L-243.6-47.6Q-237.79999999999998-54.6 -226.7-54.6L-226.7-54.6ZM-229.39999999999998-12Q-223.39999999999998-12 -219.54999999999998-16.05Q-215.7-20.1 -215.7-26.9L-215.7-26.9Q-215.7-33.7 -219.54999999999998-37.75Q-223.39999999999998-41.8 -229.39999999999998-41.8L-229.39999999999998-41.8Q-235.39999999999998-41.8 -239.25-37.75Q-243.1-33.7 -243.1-26.9L-243.1-26.9Q-243.1-20.1 -239.25-16.05Q-235.39999999999998-12 -229.39999999999998-12L-229.39999999999998-12ZM-189.5 0L-189.5-74.2L-173.89999999999998-74.2L-173.89999999999998 0L-189.5 0ZM-137.7-54.6Q-125.19999999999999-54.6 -118.5-48.65Q-111.8-42.7 -111.8-30.7L-111.8-30.7L-111.8 0L-126.39999999999999 0L-126.39999999999999-6.7Q-130.8 0.8 -142.79999999999998 0.8L-142.79999999999998 0.8Q-149 0.8 -153.54999999999998-1.3Q-158.1-3.4 -160.5-7.1Q-162.9-10.8 -162.9-15.5L-162.9-15.5Q-162.9-23 -157.25-27.3Q-151.6-31.6 -139.79999999999998-31.6L-139.79999999999998-31.6L-127.39999999999999-31.6Q-127.39999999999999-36.7 -130.5-39.45Q-133.6-42.2 -139.79999999999998-42.2L-139.79999999999998-42.2Q-144.1-42.2 -148.25-40.85Q-152.4-39.5 -155.29999999999998-37.2L-155.29999999999998-37.2L-160.9-48.1Q-156.5-51.2 -150.35-52.9Q-144.2-54.6 -137.7-54.6L-137.7-54.6ZM-138.9-9.7Q-134.9-9.7 -131.8-11.55Q-128.7-13.4 -127.39999999999999-17L-127.39999999999999-17L-127.39999999999999-22.5L-138.1-22.5Q-147.7-22.5 -147.7-16.2L-147.7-16.2Q-147.7-13.2 -145.35-11.45Q-143-9.7 -138.9-9.7L-138.9-9.7ZM-67.2-13.6L-63.00000000000001-2.6Q-65.30000000000001-0.9 -68.65-0.05Q-72 0.8 -75.7 0.8L-75.7 0.8Q-85.30000000000001 0.8 -90.55000000000001-4.1Q-95.80000000000001-9 -95.80000000000001-18.5L-95.80000000000001-18.5L-95.80000000000001-40.6L-104.10000000000001-40.6L-104.10000000000001-52.6L-95.80000000000001-52.6L-95.80000000000001-65.7L-80.2-65.7L-80.2-52.6L-66.80000000000001-52.6L-66.80000000000001-40.6L-80.2-40.6L-80.2-18.7Q-80.2-15.3 -78.45-13.45Q-76.7-11.6 -73.5-11.6L-73.5-11.6Q-69.80000000000001-11.6 -67.2-13.6L-67.2-13.6ZM-3.1999999999999957-26.7Q-3.1999999999999957-26.4 -3.499999999999993-22.5L-3.499999999999993-22.5L-44.199999999999996-22.5Q-43.099999999999994-17.5 -38.99999999999999-14.6Q-34.89999999999999-11.7 -28.799999999999997-11.7L-28.799999999999997-11.7Q-24.599999999999994-11.7 -21.349999999999994-12.95Q-18.099999999999994-14.2 -15.299999999999997-16.9L-15.299999999999997-16.9L-6.999999999999993-7.9Q-14.599999999999994 0.8 -29.199999999999996 0.8L-29.199999999999996 0.8Q-38.3 0.8 -45.3-2.75Q-52.3-6.3 -56.099999999999994-12.6Q-59.89999999999999-18.9 -59.89999999999999-26.9L-59.89999999999999-26.9Q-59.89999999999999-34.8 -56.14999999999999-41.15Q-52.39999999999999-47.5 -45.849999999999994-51.05Q-39.3-54.6 -31.199999999999996-54.6L-31.199999999999996-54.6Q-23.299999999999997-54.6 -16.89999999999999-51.2Q-10.499999999999993-47.8 -6.849999999999994-41.45Q-3.1999999999999957-35.1 -3.1999999999999957-26.7L-3.1999999999999957-26.7ZM-31.099999999999994-42.8Q-36.39999999999999-42.8 -39.99999999999999-39.8Q-43.599999999999994-36.8 -44.39999999999999-31.6L-44.39999999999999-31.6L-17.89999999999999-31.6Q-18.699999999999996-36.7 -22.299999999999997-39.75Q-25.89999999999999-42.8 -31.099999999999994-42.8L-31.099999999999994-42.8Z"></path></svg>